<?xml version="1.0" encoding="utf-8"?>
<svg version="1.1" xmlns:xlink="http://www.w3.org/1999/xlink" width="13px" height="13px" viewBox="624 328  13 13" xmlns="http://www.w3.org/2000/svg">
  <path d="M 630.5 328  C 634.14 328  637 330.86  637 334.5  C 637 338.14  634.14 341  630.5 341  C 626.86 341  624 338.14  624 334.5  C 624 330.86  626.86 328  630.5 328  Z " fill-rule="nonzero" fill="#ffffff" stroke="none" />
  <path d="M 630.5 328.5  C 633.86 328.5  636.5 331.14  636.5 334.5  C 636.5 337.86  633.86 340.5  630.5 340.5  C 627.14 340.5  624.5 337.86  624.5 334.5  C 624.5 331.14  627.14 328.5  630.5 328.5  Z " stroke-width="1" stroke="#797979" fill="none" />
  <path d="M 630.5 337.75  C 628.68 337.75  627.25 336.32  627.25 334.5  C 627.25 332.68  628.68 331.25  630.5 331.25  C 632.32 331.25  633.75 332.68  633.75 334.5  C 633.75 336.32  632.32 337.75  630.5 337.75  " fill-rule="nonzero" fill="#797979" stroke="none" />
</svg>