<?xml version="1.0" encoding="utf-8"?>
<svg version="1.1" xmlns:xlink="http://www.w3.org/1999/xlink" width="40px" height="32px" xmlns="http://www.w3.org/2000/svg">
  <g transform="matrix(1 0 0 1 -1350 -4 )">
    <path d="M 16.275510204081634 29.2625  C 16.258503401360546 29.354166666666668  16.275510204081634 29.46666666666667  16.3265306122449 29.6  C 16.3265306122449 29.666666666666668  16.335034013605444 29.833333333333332  16.35204081632653 30.1  C 16.36904761904762 30.366666666666667  16.37329931972789 30.5875  16.36479591836735 30.7625  C 16.356292517006807 30.9375  16.330782312925173 31.133333333333333  16.288265306122447 31.35  C 16.24574829931973 31.56666666666667  16.160714285714285 31.729166666666668  16.033163265306122 31.8375  C 15.90561224489796 31.945833333333333  15.731292517006805 32  15.510204081632653 32  L 7.346938775510204 32  C 5.323129251700681 32  3.592687074829932 31.29583333333333  2.1556122448979593 29.8875  C 0.7185374149659863 28.479166666666668  0 26.78333333333333  0 24.8  L 0 7.199999999999999  C 0 5.2166666666666615  0.7185374149659863 3.520833333333332  2.1556122448979593 2.1125000000000007  C 3.592687074829932 0.7041666666666622  5.323129251700681 0  7.346938775510204 0  L 15.510204081632653 0  C 15.731292517006805 0  15.92261904761905 0.07916666666666217  16.084183673469386 0.2375000000000007  C 16.24574829931973 0.39583333333333215  16.3265306122449 0.5833333333333321  16.3265306122449 0.8000000000000007  C 16.3265306122449 0.8666666666666636  16.335034013605444 1.0333333333333314  16.35204081632653 1.3000000000000007  C 16.36904761904762 1.5666666666666629  16.37329931972789 1.7875000000000014  16.36479591836735 1.9624999999999986  C 16.356292517006807 2.1374999999999993  16.330782312925173 2.333333333333332  16.288265306122447 2.5500000000000007  C 16.24574829931973 2.766666666666662  16.160714285714285 2.9291666666666636  16.033163265306122 3.0375000000000014  C 15.90561224489796 3.145833333333332  15.731292517006805 3.1999999999999993  15.510204081632653 3.1999999999999993  L 7.346938775510204 3.1999999999999993  C 6.224489795918368 3.1999999999999993  5.263605442176872 3.5916666666666615  4.464285714285714 4.375  C 3.6649659863945585 5.158333333333331  3.265306122448979 6.100000000000001  4 7.199999999999999  L 4 24.8  C 3.265306122448979 25.9  3.6649659863945585 26.84166666666666  4.464285714285714 27.625  C 5.263605442176872 28.40833333333333  6.224489795918368 28.8  7.346938775510204 28.8  L 14.693877551020408 28.8  L 14.974489795918366 28.8  L 15.306122448979592 28.8  C 15.306122448979592 28.8  15.40391156462585 28.80833333333333  15.599489795918366 28.825  C 15.795068027210885 28.84166666666667  15.892857142857142 28.866666666666667  15.892857142857142 28.9  C 15.892857142857142 28.93333333333333  15.960884353741498 28.979166666666668  16.096938775510203 29.0375  C 16.232993197278912 29.09583333333333  16.292517006802722 29.17083333333333  16.275510204081634 29.2625  Z M 39.515306122448976 14.875  C 39.83843537414966 15.191666666666666  40 15.566666666666666  40 16  C 40 16.43333333333333  39.83843537414966 16.80833333333333  39.515306122448976 17.125  L 25.637755102040817 30.725  C 25.314625850340136 31.041666666666668  24.931972789115648 31.2  24.48979591836735 31.2  C 24.04761904761905 31.2  23.66496598639456 31.041666666666668  23.341836734693878 30.725  C 23.0187074829932 30.40833333333333  22.857142857142854 30.03333333333333  22.857142857142854 29.6  L 22.857142857142854 22  L 11.428571428571427 22  C 10.986394557823129 22.4  10.60374149659864 22.241666666666667  10.28061224489796 21.925  C 9.957482993197278 21.60833333333333  9.795918367346939 21.23333333333333  9.795918367346939 20.8  L 9.795918367346939 11.2  C 9.795918367346939 10.766666666666662  9.957482993197278 10.391666666666662  10.28061224489796 10.075  C 10.60374149659864 9.758333333333333  10.986394557823129 9.600000000000001  11.428571428571427 10  L 22.857142857142854 10  L 22.857142857142854 2.3999999999999986  C 22.857142857142854 1.9666666666666615  23.0187074829932 1.5916666666666615  23.341836734693878 1.2749999999999986  C 23.66496598639456 0.9583333333333321  24.04761904761905 0.8000000000000007  24.48979591836735 0.8000000000000007  C 24.931972789115648 0.8000000000000007  25.314625850340136 0.9583333333333321  25.637755102040817 1.2749999999999986  L 39.515306122448976 14.875  Z " fill-rule="nonzero" fill="#808080" stroke="none" transform="matrix(1 0 0 1 1350 4 )" />
  </g>
</svg>