<?xml version="1.0" encoding="utf-8"?>
<svg version="1.1" xmlns:xlink="http://www.w3.org/1999/xlink" width="50px" height="45px" xmlns="http://www.w3.org/2000/svg">
  <g transform="matrix(1 0 0 1 -32 -66 )">
    <path d="M 48.521205357142854 20.334375  C 49.507068452380956 22.846874999999994  50 25.968749999999996  50 29.699999999999996  C 50 32.81249999999999  48.818824404761905 37.040625  46.456473214285715 42.384375  C 46.40066964285715 42.515625  46.30301339285715 42.740625  46.163504464285715 43.059375  C 46.02399553571429 43.378125  45.89843750000001 43.659375  45.786830357142854 43.903124999999996  C 45.67522321428572 44.146875  45.55431547619048 44.353125  45.424107142857146 44.521875  C 45.200892857142854 44.840625  44.94047619047619 45  44.642857142857146 45  C 44.363839285714285 45  44.14527529761905 44.90625  43.98716517857143 44.71875  C 43.82905505952381 44.53125  43.75 44.296875  43.75 44.015625  C 43.75 43.846875  43.77325148809524 43.5984375  43.819754464285715 43.2703125  C 43.86625744047619 42.942187499999996  43.88950892857143 42.721875  43.88950892857143 42.609375  C 43.98251488095239 41.334375  44.02901785714287 40.18125  44.029017857142854 39.15  C 44.02901785714287 37.25625  43.8662574404762 35.559374999999996  43.540736607142854 34.059374999999996  C 43.215215773809526 32.559374999999996  42.764136904761905 31.2609375  42.1875 30.1640625  C 41.6108630952381 29.067187500000003  40.866815476190474 28.120312499999994  39.955357142857146 27.3234375  C 39.04389880952381 26.5265625  38.06268601190476 25.874999999999996  37.01171875 25.36875  C 35.96075148809524 24.8625  34.72377232142857 24.464062499999997  33.30078125 24.1734375  C 31.87779017857143 23.8828125  30.445498511904763 23.68125  29.00390625 23.568749999999998  C 27.562313988095237 23.45625  25.930059523809522 23.400000000000002  24.107142857142858 23.400000000000002  L 17.857142857142858 23.400000000000002  L 17.857142857142858 30.599999999999998  C 17.857142857142858 31.0875  17.68043154761905 31.509375  17.327008928571427 31.865625  C 16.97358630952381 32.221875  16.555059523809526 32.4  16.071428571428573 32.4  C 15.587797619047622 32.4  15.169270833333334 32.221875  14.815848214285715 31.865625  L 0.5301339285714286 17.465625000000003  C 0.17671130952380953 17.109374999999996  0 16.687499999999996  0 16.2  C 0 15.712499999999999  0.17671130952380953 15.290624999999997  0.5301339285714286 14.934375000000001  L 14.815848214285715 0.5343749999999986  C 15.169270833333334 0.17812499999999787  15.587797619047622 0  16.071428571428573 0  C 16.555059523809526 0  16.97358630952381 0.17812499999999787  17.327008928571427 0.5343749999999986  C 17.68043154761905 0.8906249999999943  17.857142857142858 1.3124999999999953  17.857142857142858 1.8000000000000016  L 17.857142857142858 8.999999999999998  L 24.107142857142858 8.999999999999998  C 37.36979166666667 8.999999999999998  45.5078125 12.778125  48.521205357142854 20.334375  Z " fill-rule="nonzero" fill="#808080" stroke="none" transform="matrix(1 0 0 1 32 66 )" />
  </g>
</svg>